REM DIRINDEX 1\2\5,1\2\6,1\2\7,1\2\8,1\3\9,1\3\10,1\3\11,1\4\12,1\4\13,1\4\14,1\4\15,1\4\16
REM DIRNAME cjc034,folder01,folder02,folder03,folder04,folder05,folder06,folder07,folder08,folder09,folder10,folder11,folder12,folder13,folder14,folder15
TITLE ""
FILE "1200_2_sec03_1045_1062.mp3" MP3
  TRACK 01 AUDIO
    TITLE "0:"
    INDEX 01 00:00:00
  TRACK 02 AUDIO
    TITLE "10:cjc034_02155"
    INDEX 01 00:00:01
  TRACK 03 AUDIO
    TITLE "0:"
    INDEX 01 00:01:09
  TRACK 04 AUDIO
    TITLE "9:cjc034_02156"
    INDEX 01 00:01:11
  TRACK 05 AUDIO
    TITLE "0:"
    INDEX 01 00:02:36
  TRACK 06 AUDIO
    TITLE "10:cjc034_02157"
    INDEX 01 00:03:14
  TRACK 07 AUDIO
    TITLE "0:"
    INDEX 01 00:04:42
  TRACK 08 AUDIO
    TITLE "9:cjc034_02158"
    INDEX 01 00:04:46
  TRACK 09 AUDIO
    TITLE "0:"
    INDEX 01 00:05:61
  TRACK 10 AUDIO
    TITLE "10:cjc034_02159"
    INDEX 01 00:06:49
  TRACK 11 AUDIO
    TITLE "0:"
    INDEX 01 00:07:66
  TRACK 12 AUDIO
    TITLE "9:cjc034_02160"
    INDEX 01 00:07:72
  TRACK 13 AUDIO
    TITLE "0:"
    INDEX 01 00:09:20
  TRACK 14 AUDIO
    TITLE "10:cjc034_02161"
    INDEX 01 00:09:71
  TRACK 15 AUDIO
    TITLE "0:"
    INDEX 01 00:11:23
  TRACK 16 AUDIO
    TITLE "9:cjc034_02162"
    INDEX 01 00:11:25
  TRACK 17 AUDIO
    TITLE "0:"
    INDEX 01 00:12:52
  TRACK 18 AUDIO
    TITLE "11:cjc034_02163"
    INDEX 01 00:14:21
  TRACK 19 AUDIO
    TITLE "0:"
    INDEX 01 00:20:12
  TRACK 20 AUDIO
    TITLE "10:cjc034_02164"
    INDEX 01 00:21:17
  TRACK 21 AUDIO
    TITLE "0:"
    INDEX 01 00:23:36
  TRACK 22 AUDIO
    TITLE "9:cjc034_02165"
    INDEX 01 00:23:40
  TRACK 23 AUDIO
    TITLE "0:"
    INDEX 01 00:24:63
  TRACK 24 AUDIO
    TITLE "10:cjc034_02166"
    INDEX 01 00:25:46
  TRACK 25 AUDIO
    TITLE "0:"
    INDEX 01 00:26:50
  TRACK 26 AUDIO
    TITLE "9:cjc034_02167"
    INDEX 01 00:26:56
  TRACK 27 AUDIO
    TITLE "0:"
    INDEX 01 00:28:02
  TRACK 28 AUDIO
    TITLE "10:cjc034_02168"
    INDEX 01 00:28:59
  TRACK 29 AUDIO
    TITLE "0:"
    INDEX 01 00:30:01
  TRACK 30 AUDIO
    TITLE "9:cjc034_02169"
    INDEX 01 00:30:06
  TRACK 31 AUDIO
    TITLE "0:"
    INDEX 01 00:31:22
  TRACK 32 AUDIO
    TITLE "10:cjc034_02170"
    INDEX 01 00:32:03
  TRACK 33 AUDIO
    TITLE "0:"
    INDEX 01 00:33:15
  TRACK 34 AUDIO
    TITLE "9:cjc034_02171"
    INDEX 01 00:33:26
  TRACK 35 AUDIO
    TITLE "0:"
    INDEX 01 00:34:30
  TRACK 36 AUDIO
    TITLE "10:cjc034_02172"
    INDEX 01 00:35:12
  TRACK 37 AUDIO
    TITLE "0:"
    INDEX 01 00:36:19
  TRACK 38 AUDIO
    TITLE "9:cjc034_02173"
    INDEX 01 00:36:21
  TRACK 39 AUDIO
    TITLE "0:"
    INDEX 01 00:37:61
  TRACK 40 AUDIO
    TITLE "10:cjc034_02174"
    INDEX 01 00:38:43
  TRACK 41 AUDIO
    TITLE "0:"
    INDEX 01 00:40:64
  TRACK 42 AUDIO
    TITLE "9:cjc034_02175"
    INDEX 01 00:40:72
  TRACK 43 AUDIO
    TITLE "0:"
    INDEX 01 00:42:12
  TRACK 44 AUDIO
    TITLE "10:cjc034_02176"
    INDEX 01 00:42:74
  TRACK 45 AUDIO
    TITLE "0:"
    INDEX 01 00:44:09
  TRACK 46 AUDIO
    TITLE "9:cjc034_02177"
    INDEX 01 00:44:12
  TRACK 47 AUDIO
    TITLE "0:"
    INDEX 01 00:45:08
  TRACK 48 AUDIO
    TITLE "10:cjc034_02178"
    INDEX 01 00:45:63
  TRACK 49 AUDIO
    TITLE "0:"
    INDEX 01 00:46:54
  TRACK 50 AUDIO
    TITLE "9:cjc034_02179"
    INDEX 01 00:46:60
  TRACK 51 AUDIO
    TITLE "0:"
    INDEX 01 00:47:70
  TRACK 52 AUDIO
    TITLE "10:cjc034_02180"
    INDEX 01 00:48:55
  TRACK 53 AUDIO
    TITLE "0:"
    INDEX 01 00:49:72
  TRACK 54 AUDIO
    TITLE "9:cjc034_02181"
    INDEX 01 00:50:03
  TRACK 55 AUDIO
    TITLE "0:"
    INDEX 01 00:51:01
  TRACK 56 AUDIO
    TITLE "10:cjc034_02182"
    INDEX 01 00:51:60
  TRACK 57 AUDIO
    TITLE "0:"
    INDEX 01 00:52:65
  TRACK 58 AUDIO
    TITLE "9:cjc034_02183"
    INDEX 01 00:52:67
  TRACK 59 AUDIO
    TITLE "0:"
    INDEX 01 00:54:15
  TRACK 60 AUDIO
    TITLE "10:cjc034_02184"
    INDEX 01 00:54:72
  TRACK 61 AUDIO
    TITLE "0:"
    INDEX 01 00:56:14
  TRACK 62 AUDIO
    TITLE "9:cjc034_02185"
    INDEX 01 00:56:18
  TRACK 63 AUDIO
    TITLE "0:"
    INDEX 01 00:57:31
  TRACK 64 AUDIO
    TITLE "10:cjc034_02186"
    INDEX 01 00:58:11
  TRACK 65 AUDIO
    TITLE "0:"
    INDEX 01 00:59:26
  TRACK 66 AUDIO
    TITLE "9:cjc034_02187"
    INDEX 01 00:59:28
  TRACK 67 AUDIO
    TITLE "0:"
    INDEX 01 01:00:25
  TRACK 68 AUDIO
    TITLE "10:cjc034_02188"
    INDEX 01 01:01:07
  TRACK 69 AUDIO
    TITLE "0:"
    INDEX 01 01:02:26
  TRACK 70 AUDIO
    TITLE "9:cjc034_02189"
    INDEX 01 01:02:30
  TRACK 71 AUDIO
    TITLE "0:"
    INDEX 01 01:03:49
  TRACK 72 AUDIO
    TITLE "10:cjc034_02190"
    INDEX 01 01:04:27
  TRACK 73 AUDIO
    TITLE "0:"
    INDEX 01 01:07:02
  TRACK 74 AUDIO
    TITLE "9:cjc034_02191"
    INDEX 01 01:07:04
  TRACK 75 AUDIO
    TITLE "0:"
    INDEX 01 01:08:29
